<svg width="178" height="16" viewBox="0 0 178 16" fill="none" xmlns="http://www.w3.org/2000/svg">
<path d="M41.3145 15.2344C37.291 15.2344 34.7617 12.4707 34.7617 7.94922C34.7617 3.45703 37.3105 0.673828 41.3145 0.673828C44.5859 0.673828 47.0762 2.71484 47.3887 5.74219H44.9082C44.5762 3.97461 43.1406 2.8125 41.3145 2.8125C38.8926 2.8125 37.3398 4.80469 37.3398 7.94922C37.3398 11.1133 38.8828 13.0957 41.3242 13.0957C43.1895 13.0957 44.5273 12.0898 44.918 10.3906H47.3887C46.9492 13.4082 44.6445 15.2344 41.3145 15.2344ZM51.8223 2.94922V7.76367H54.6641C56.2656 7.76367 57.1934 6.875 57.1934 5.35156C57.1934 3.86719 56.207 2.94922 54.6152 2.94922H51.8223ZM51.8223 9.69727V15H49.3027V0.908203H54.8984C57.9453 0.908203 59.7715 2.59766 59.7715 5.29297C59.7715 7.1582 58.7949 8.71094 57.1152 9.31641L60.1914 15H57.3203L54.5469 9.69727H51.8223ZM68.082 15H65.5723V9.44336L60.6309 0.908203H63.3945L66.8125 7.04102H66.8711L70.2793 0.908203H73.0234L68.082 9.44336V15ZM74.5371 0.908203H80.0156C82.8184 0.908203 84.7617 2.8125 84.7617 5.625C84.7617 8.4375 82.7598 10.3418 79.9082 10.3418H77.0566V15H74.5371V0.908203ZM77.0566 2.96875V8.31055H79.3418C81.1484 8.31055 82.2031 7.33398 82.2031 5.625C82.2031 3.93555 81.1582 2.96875 79.3516 2.96875H77.0566ZM92.5645 15H90.0547V3.03711H85.8359V0.908203H96.7734V3.03711H92.5645V15ZM103.893 0.673828C107.994 0.673828 110.572 3.47656 110.572 7.95898C110.572 12.4414 107.994 15.2344 103.893 15.2344C99.7812 15.2344 97.2031 12.4414 97.2031 7.95898C97.2031 3.47656 99.7812 0.673828 103.893 0.673828ZM103.893 2.82227C101.373 2.82227 99.7812 4.81445 99.7812 7.95898C99.7812 11.0938 101.373 13.0859 103.893 13.0859C106.402 13.0859 108.004 11.0938 108.004 7.95898C108.004 4.81445 106.402 2.82227 103.893 2.82227ZM124.469 15H121.959V8.88672H115.104V15H112.584V0.908203H115.104V6.76758H121.959V0.908203H124.469V15ZM133.17 0.673828C137.271 0.673828 139.85 3.47656 139.85 7.95898C139.85 12.4414 137.271 15.2344 133.17 15.2344C129.059 15.2344 126.48 12.4414 126.48 7.95898C126.48 3.47656 129.059 0.673828 133.17 0.673828ZM133.17 2.82227C130.65 2.82227 129.059 4.81445 129.059 7.95898C129.059 11.0938 130.65 13.0859 133.17 13.0859C135.68 13.0859 137.281 11.0938 137.281 7.95898C137.281 4.81445 135.68 2.82227 133.17 2.82227ZM144.381 0.908203V9.80469C144.381 11.7285 145.562 13.0371 147.652 13.0371C149.742 13.0371 150.934 11.7285 150.934 9.80469V0.908203H153.443V10.0293C153.443 13.1055 151.227 15.2344 147.652 15.2344C144.088 15.2344 141.861 13.1055 141.861 10.0293V0.908203H144.381ZM155.367 11.0352H157.809C157.965 12.334 159.264 13.1836 160.982 13.1836C162.682 13.1836 163.863 12.3438 163.863 11.1719C163.863 10.1562 163.141 9.57031 161.363 9.15039L159.537 8.7207C156.939 8.125 155.709 6.875 155.709 4.86328C155.709 2.36328 157.887 0.673828 160.953 0.673828C164.059 0.673828 166.109 2.35352 166.168 4.83398H163.766C163.648 3.51562 162.545 2.72461 160.934 2.72461C159.342 2.72461 158.268 3.50586 158.268 4.67773C158.268 5.61523 158.98 6.16211 160.709 6.57227L162.33 6.94336C165.191 7.59766 166.402 8.7793 166.402 10.8789C166.402 13.5547 164.254 15.2344 160.846 15.2344C157.604 15.2344 155.475 13.6328 155.367 11.0352ZM177.428 12.8711V15H168.307V0.908203H177.428V3.03711H170.826V6.8457H177.066V8.84766H170.826V12.8711H177.428Z" fill="white"/>
<path d="M20.1282 0C19.8811 0.222122 19.6851 0.485906 19.5513 0.776267C19.4176 1.06663 19.3487 1.37787 19.3487 1.69219C19.3487 2.00652 19.4176 2.31776 19.5513 2.60812C19.6851 2.89848 19.8811 3.16226 20.1282 3.38439L25.2432 7.9892L20.1156 12.6043L17.5074 10.2557C17.0087 9.80706 16.3324 9.55502 15.6273 9.55502C14.9222 9.55502 14.2459 9.80706 13.7472 10.2557L20.1122 15.9856L29 7.98613L20.1282 0Z" fill="white"/>
<path d="M20.128 9.64067C21.1349 9.64067 21.9512 8.90601 21.9512 7.99976C21.9512 7.0935 21.1349 6.35884 20.128 6.35884C19.1212 6.35884 18.3049 7.0935 18.3049 7.99976C18.3049 8.90601 19.1212 9.64067 20.128 9.64067Z" fill="white"/>
<path d="M9.87296 16C10.3714 15.5511 10.6515 14.9425 10.6515 14.3078C10.6515 13.6732 10.3714 13.0645 9.87296 12.6156L4.76021 8.0108L9.88778 3.39573L12.4937 5.74428C12.9924 6.19294 13.6687 6.44498 14.3738 6.44498C15.079 6.44498 15.7552 6.19294 16.2539 5.74428L9.88778 0.0144162L1 8.01387L9.87296 16Z" fill="white"/>
<path d="M9.87285 9.64067C10.8797 9.64067 11.696 8.90601 11.696 7.99976C11.696 7.0935 10.8797 6.35884 9.87285 6.35884C8.86596 6.35884 8.04971 7.0935 8.04971 7.99976C8.04971 8.90601 8.86596 9.64067 9.87285 9.64067Z" fill="white"/>
</svg>
